<svg width="60" height="60" viewBox="0 0 60 60" fill="none" xmlns="http://www.w3.org/2000/svg">
<g clip-path="url(#clip0_53_48)">
<rect x="0.5" y="0.5" width="59" height="59" rx="19.5" fill="white" stroke="#1F1970"/>
<path d="M37.888 37.3545C40.6571 34.1704 41.9084 30.1053 41.6239 26.1025L27.1914 26.6579L37.888 37.3545Z" fill="#37B890"/>
<path d="M14.9487 37.9576L15.6084 38.5549C17.7537 40.4972 20.2849 41.7479 22.9208 42.3131L23.4142 29.4921L14.9487 37.9576Z" fill="#37B890"/>
<path d="M25.093 42.6223C29.0943 42.9094 33.1588 41.6617 36.3439 38.8972L25.648 28.2014L25.093 42.6223Z" fill="#37B890"/>
<path d="M37.5557 16.6075L36.9584 15.9478L28.4822 24.424L41.3161 23.9302C40.752 21.2906 39.5005 18.7556 37.5557 16.6075Z" fill="#37B890"/>
<path d="M41.6787 12.7717L40.907 12L38.5036 14.4034L39.1736 15.1434C42.2603 18.5527 43.9163 22.9534 43.8368 27.5348C43.7568 32.137 41.9297 36.4547 38.6921 39.6922C35.4545 42.9298 31.137 44.7569 26.5347 44.8368C26.4296 44.8386 26.3241 44.8396 26.2192 44.8396C21.7514 44.8396 17.4745 43.1896 14.1434 40.1737L13.4033 39.5037L11 41.907L11.7717 42.6786C15.812 46.719 21.1652 48.9638 26.8452 48.9994C26.8913 48.9997 26.9367 48.9999 26.9828 48.9999C32.6161 48.9999 37.8945 46.8217 41.8582 42.858C45.8542 38.862 48.0353 33.5303 47.9996 27.8451C47.9638 22.1652 45.7191 16.812 41.6787 12.7717Z" fill="#37B890"/>
</g>
<defs>
<clipPath id="clip0_53_48">
<rect width="60" height="60" fill="white"/>
</clipPath>
</defs>
</svg>
